<svg xmlns="http://www.w3.org/2000/svg" xmlns:xlink="http://www.w3.org/1999/xlink" width="1294" height="670" viewBox="0 0 1294 670">
  <defs>
    <clipPath id="clip-Mesa_de_trabajo_7">
      <rect width="1294" height="670"/>
    </clipPath>
  </defs>
  <g id="Mesa_de_trabajo_7" data-name="Mesa de trabajo – 7" clip-path="url(#clip-Mesa_de_trabajo_7)">
    <g id="Grupo_55306" data-name="Grupo 55306" transform="translate(104.713 -2.91)">
      <path id="Trazado_100615" data-name="Trazado 100615" d="M1044.122,237.707q-3.074-10.226-6.889-20.129c-21.744-56.369-70.6-98.252-122.356-123.856-45-22.264-95.93-34.631-146.512-32.583C649.206,65.961,540.4,146.7,419.605,128.595,262.1,104.988,140.053,62.051,70.164,165.381s-53.2,301.275,41.725,384.872,223.224,49.8,308.759,25.823,265.992,97.117,485.046,10.081c62.946-25.01,110.083-74.782,132.475-140.2C1060.743,380,1064.087,304.124,1044.122,237.707Z" transform="translate(0 -10)" fill="#59ffcc" opacity="0.2"/>
    </g>
  </g>
</svg>
